<svg id="Layer_1" data-name="Layer 1" xmlns="http://www.w3.org/2000/svg" xmlns:xlink="http://www.w3.org/1999/xlink" viewBox="0 0 226 231"><defs><style>.cls-1{fill:none;}.cls-2{fill:#3a3a3a;}.cls-3{clip-path:url(#clip-path);}.cls-4{clip-path:url(#clip-path-2);}.cls-5{clip-path:url(#clip-path-3);}.cls-6{clip-path:url(#clip-path-4);}</style><clipPath id="clip-path"><rect class="cls-1" x="42" y="199" width="141" height="32"/></clipPath><clipPath id="clip-path-2"><rect class="cls-1" x="199" y="45" width="27" height="142"/></clipPath><clipPath id="clip-path-3"><rect class="cls-1" y="45" width="27" height="142"/></clipPath><clipPath id="clip-path-4"><rect class="cls-1" x="42" width="141" height="32"/></clipPath></defs><title>mp-logo copy</title><g id="iPhone_6_7_8_2" data-name="iPhone 6 7 8 2"><rect id="Rectangle_1" data-name="Rectangle 1" class="cls-2" x="39" y="41.03" width="148" height="148.95" rx="9.49"/><g class="cls-3"><g id="Repeat_Grid_2" data-name="Repeat Grid 2"><rect id="Rectangle_2" data-name="Rectangle 2" class="cls-2" x="42" y="201" width="27" height="28" rx="4"/><rect id="Rectangle_2-2" data-name="Rectangle 2-2" class="cls-2" x="80" y="201" width="27" height="28" rx="4"/><rect id="Rectangle_2-3" data-name="Rectangle 2-3" class="cls-2" x="118" y="201" width="27" height="28" rx="4"/><rect id="Rectangle_2-4" data-name="Rectangle 2-4" class="cls-2" x="156" y="201" width="27" height="28" rx="4"/></g></g><g class="cls-4"><g id="Repeat_Grid_3" data-name="Repeat Grid 3"><rect id="Rectangle_2-5" data-name="Rectangle 2-5" class="cls-2" x="199" y="45" width="27" height="28" rx="4"/><rect id="Rectangle_2-6" data-name="Rectangle 2-6" class="cls-2" x="199" y="83" width="27" height="28" rx="4"/><rect id="Rectangle_2-7" data-name="Rectangle 2-7" class="cls-2" x="199" y="121" width="27" height="28" rx="4"/><rect id="Rectangle_2-8" data-name="Rectangle 2-8" class="cls-2" x="199" y="159" width="27" height="28" rx="4"/></g></g><g class="cls-5"><g id="Repeat_Grid_4" data-name="Repeat Grid 4"><rect id="Rectangle_2-9" data-name="Rectangle 2-9" class="cls-2" y="45" width="27" height="28" rx="4"/><rect id="Rectangle_2-10" data-name="Rectangle 2-10" class="cls-2" y="83" width="27" height="28" rx="4"/><rect id="Rectangle_2-11" data-name="Rectangle 2-11" class="cls-2" y="121" width="27" height="28" rx="4"/><rect id="Rectangle_2-12" data-name="Rectangle 2-12" class="cls-2" y="159" width="27" height="28" rx="4"/></g></g><g class="cls-6"><g id="Repeat_Grid_5" data-name="Repeat Grid 5"><rect id="Rectangle_2-13" data-name="Rectangle 2-13" class="cls-2" x="42" y="2" width="27" height="28" rx="4"/><rect id="Rectangle_2-14" data-name="Rectangle 2-14" class="cls-2" x="80" y="2" width="27" height="28" rx="4"/><rect id="Rectangle_2-15" data-name="Rectangle 2-15" class="cls-2" x="118" y="2" width="27" height="28" rx="4"/><rect id="Rectangle_2-16" data-name="Rectangle 2-16" class="cls-2" x="156" y="2" width="27" height="28" rx="4"/></g></g></g></svg>